# xmcd
#
# Track frame offsets: 
#        183
#        4583
#        29383
#        48008
#        65720
#        81033
#        104808
#        122945
#        137058
#        152083
#
# Disc length: 2192 seconds
#
# Revision: 4
# Processed by: cddbd v1.5.2PL0 Copyright (c) Steve Scherf et al.
# Submitted via: ExactAudioCopy v1.0b1
#
DISCID=82088e0a
DTITLE=Sérgio Godinho - Campolide
DYEAR=1979
DGENRE=Pop
TTITLE0=Parto Sem Dor
TTITLE1=Lá Em Baixo
TTITLE2=Cuidado Com as Imitações
TTITLE3=Vivo Numa Outra Terra
TTITLE4=Arranja-me Um Emprego
TTITLE5=Mudemos de Assunto
TTITLE6=Quatro Quadras Soltas
TTITLE7=Os Conquistadores
TTITLE8=Le Soleil En Face
TTITLE9=Espectáculo
EXTD=
EXTT0=
EXTT1=
EXTT2=
EXTT3=
EXTT4=
EXTT5=
EXTT6=
EXTT7=
EXTT8=
EXTT9=
PLAYORDER=
